<svg xmlns="http://www.w3.org/2000/svg" xmlns:xlink="http://www.w3.org/1999/xlink" width="500" zoomAndPan="magnify" viewBox="0 0 375 374.999991" height="500" preserveAspectRatio="xMidYMid meet" version="1.0"><defs><clipPath id="f1caa143a5"><path d="M 126 103 L 285 103 L 285 264 L 126 264 Z M 126 103 " clip-rule="nonzero"/></clipPath><clipPath id="55b447bdf3"><path d="M 98.457031 140.527344 L 286.847656 96.363281 L 315.949219 220.5 L 127.554688 264.660156 Z M 98.457031 140.527344 " clip-rule="nonzero"/></clipPath><clipPath id="7b665bba7d"><path d="M 98.457031 140.527344 L 286.847656 96.363281 L 315.949219 220.5 L 127.554688 264.660156 Z M 98.457031 140.527344 " clip-rule="nonzero"/></clipPath><clipPath id="44f98f2011"><path d="M 272 96 L 287 96 L 287 113 L 272 113 Z M 272 96 " clip-rule="nonzero"/></clipPath><clipPath id="8e4201e9ed"><path d="M 98.457031 140.527344 L 286.847656 96.363281 L 315.949219 220.5 L 127.554688 264.660156 Z M 98.457031 140.527344 " clip-rule="nonzero"/></clipPath><clipPath id="5724bd2632"><path d="M 98.457031 140.527344 L 286.847656 96.363281 L 315.949219 220.5 L 127.554688 264.660156 Z M 98.457031 140.527344 " clip-rule="nonzero"/></clipPath><clipPath id="6bd4a2be64"><path d="M 35 119 L 139 119 L 139 340 L 35 340 Z M 35 119 " clip-rule="nonzero"/></clipPath><clipPath id="27a86a8c06"><path d="M 67.285156 92.4375 L 209.6875 166.480469 L 106.234375 365.441406 L -36.167969 291.402344 Z M 67.285156 92.4375 " clip-rule="nonzero"/></clipPath><clipPath id="8439417877"><path d="M 67.285156 92.4375 L 209.6875 166.480469 L 106.234375 365.441406 L -36.167969 291.402344 Z M 67.285156 92.4375 " clip-rule="nonzero"/></clipPath><clipPath id="27cb7490aa"><path d="M 55 178 L 113 178 L 113 295 L 55 295 Z M 55 178 " clip-rule="nonzero"/></clipPath><clipPath id="9393847c3b"><path d="M 67.285156 92.4375 L 209.6875 166.480469 L 106.234375 365.441406 L -36.167969 291.402344 Z M 67.285156 92.4375 " clip-rule="nonzero"/></clipPath><clipPath id="287f2ef4f3"><path d="M 67.285156 92.4375 L 209.6875 166.480469 L 106.234375 365.441406 L -36.167969 291.402344 Z M 67.285156 92.4375 " clip-rule="nonzero"/></clipPath><clipPath id="f556ebb1ca"><path d="M 34 119 L 139 119 L 139 341 L 34 341 Z M 34 119 " clip-rule="nonzero"/></clipPath><clipPath id="f6621b5db4"><path d="M 67.285156 92.4375 L 209.6875 166.480469 L 106.234375 365.441406 L -36.167969 291.402344 Z M 67.285156 92.4375 " clip-rule="nonzero"/></clipPath><clipPath id="58d3e5e365"><path d="M 67.285156 92.4375 L 209.6875 166.480469 L 106.234375 365.441406 L -36.167969 291.402344 Z M 67.285156 92.4375 " clip-rule="nonzero"/></clipPath><clipPath id="ec4d66481a"><path d="M 50 118 L 148 118 L 148 290 L 50 290 Z M 50 118 " clip-rule="nonzero"/></clipPath><clipPath id="88ad905659"><path d="M 67.285156 92.4375 L 209.6875 166.480469 L 106.234375 365.441406 L -36.167969 291.402344 Z M 67.285156 92.4375 " clip-rule="nonzero"/></clipPath><clipPath id="f8adf8ac74"><path d="M 67.285156 92.4375 L 209.6875 166.480469 L 106.234375 365.441406 L -36.167969 291.402344 Z M 67.285156 92.4375 " clip-rule="nonzero"/></clipPath><clipPath id="939e4a6625"><path d="M 245 38 L 275 38 L 275 89 L 245 89 Z M 245 38 " clip-rule="nonzero"/></clipPath><clipPath id="5f8eb77d02"><path d="M 242.011719 40.914062 L 267.792969 35.992188 L 277.21875 85.351562 L 251.433594 90.273438 Z M 242.011719 40.914062 " clip-rule="nonzero"/></clipPath><clipPath id="0e0f98d82c"><path d="M 242.011719 40.914062 L 267.792969 35.992188 L 277.21875 85.351562 L 251.433594 90.273438 Z M 242.011719 40.914062 " clip-rule="nonzero"/></clipPath><clipPath id="28a6246a36"><path d="M 275 27 L 303 27 L 303 78 L 275 78 Z M 275 27 " clip-rule="nonzero"/></clipPath><clipPath id="316c04c03b"><path d="M 274.398438 28.324219 L 300.625 27.234375 L 302.714844 77.441406 L 276.488281 78.53125 Z M 274.398438 28.324219 " clip-rule="nonzero"/></clipPath><clipPath id="d2a7c55504"><path d="M 274.398438 28.324219 L 300.625 27.234375 L 302.714844 77.441406 L 276.488281 78.53125 Z M 274.398438 28.324219 " clip-rule="nonzero"/></clipPath><clipPath id="261b9840a7"><path d="M 304 33 L 334 33 L 334 85 L 304 85 Z M 304 33 " clip-rule="nonzero"/></clipPath><clipPath id="d3d63d3eff"><path d="M 309.492188 32.261719 L 335.527344 35.613281 L 329.113281 85.453125 L 303.078125 82.101562 Z M 309.492188 32.261719 " clip-rule="nonzero"/></clipPath><clipPath id="e31b91738f"><path d="M 309.492188 32.261719 L 335.527344 35.613281 L 329.113281 85.453125 L 303.078125 82.101562 Z M 309.492188 32.261719 " clip-rule="nonzero"/></clipPath><clipPath id="c0a15428f4"><path d="M 333 11.140625 L 346 11.140625 L 346 29 L 333 29 Z M 333 11.140625 " clip-rule="nonzero"/></clipPath><clipPath id="c35ede878b"><path d="M 345 55 L 363.589844 55 L 363.589844 60 L 345 60 Z M 345 55 " clip-rule="nonzero"/></clipPath><clipPath id="ca4dda83ca"><path d="M 213.589844 60 L 232 60 L 232 66 L 213.589844 66 Z M 213.589844 60 " clip-rule="nonzero"/></clipPath><clipPath id="257cadb58c"><path d="M 229 90 L 239 90 L 239 106.390625 L 229 106.390625 Z M 229 90 " clip-rule="nonzero"/></clipPath></defs><g clip-path="url(#f1caa143a5)"><g clip-path="url(#55b447bdf3)"><g clip-path="url(#7b665bba7d)"><path fill="#4b8046" d="M 128.199219 258.707031 L 170.410156 199.976562 L 171.871094 197.945312 L 173.957031 199.324219 L 189.820312 209.785156 L 186.242188 210.484375 L 208.460938 178.214844 L 209.097656 177.289062 L 210.210938 177.117188 L 225.679688 174.75 L 223.757812 176.140625 L 234.667969 154.816406 L 235.238281 153.699219 L 236.464844 153.449219 L 251.796875 150.339844 L 250.109375 151.511719 L 279.015625 105.210938 L 280.394531 103.003906 L 284.8125 105.761719 L 283.433594 107.96875 L 254.523438 154.269531 L 253.929688 155.21875 L 252.832031 155.441406 L 237.5 158.554688 L 239.300781 157.1875 L 228.390625 178.511719 L 227.785156 179.695312 L 226.46875 179.898438 L 211 182.265625 L 212.75 181.167969 L 190.53125 213.433594 L 189.085938 215.535156 L 186.953125 214.132812 L 171.089844 203.667969 L 174.636719 203.015625 L 132.425781 261.746094 L 130.90625 263.859375 L 126.679688 260.820312 Z M 128.199219 258.707031 " fill-opacity="1" fill-rule="nonzero"/></g></g></g><g clip-path="url(#44f98f2011)"><g clip-path="url(#8e4201e9ed)"><g clip-path="url(#5724bd2632)"><path fill="#4b8046" d="M 286.421875 96.472656 L 286.421875 96.476562 L 272.859375 104.414062 C 277.4375 106.949219 282.011719 109.484375 286.589844 112.023438 L 286.421875 96.472656 " fill-opacity="1" fill-rule="nonzero"/></g></g></g><g clip-path="url(#6bd4a2be64)"><g clip-path="url(#27a86a8c06)"><g clip-path="url(#8439417877)"><path fill="#ffffff" d="M 137.675781 282.730469 C 125.953125 287.042969 116.773438 297.175781 109.578125 307.066406 C 102.660156 316.617188 96.636719 324.722656 87.25 332.058594 C 77.589844 339.644531 65.503906 341.179688 54.234375 336.347656 C 45.914062 332.800781 41.078125 327.160156 38.335938 321.433594 C 33.847656 312.113281 34.46875 301.148438 39.441406 292.148438 C 51.335938 270.773438 83.75 210.125 98.683594 180.652344 C 117.582031 143.367188 118.566406 137.625 106.5625 131.480469 C 100.445312 128.300781 93.042969 128.066406 87.253906 128.480469 C 85.855469 128.632812 84.671875 127.527344 84.636719 126.089844 L 84.539062 120.078125 C 84.546875 119.59375 84.882812 119.230469 85.289062 119.199219 C 94.960938 118.265625 123.605469 121.722656 130.082031 142.730469 C 132.167969 149.4375 130.21875 157.21875 127.3125 164.503906 C 125.273438 169.648438 122.75 174.496094 120.824219 178.675781 C 102.625 217.25 85.539062 256.402344 67.917969 295.277344 C 66.359375 298.082031 65.261719 301.421875 66.820312 304.433594 C 67.726562 306.171875 69.335938 307.304688 71.152344 307.855469 C 79.875 310.339844 84.097656 296.019531 86.710938 290.242188 C 92.574219 277.457031 99.578125 265.214844 108.589844 254.363281 C 109.421875 253.328125 116.96875 245.769531 119.496094 242.882812 C 119.890625 242.402344 120.609375 242.53125 120.871094 243.058594 C 123.699219 249.367188 135.816406 276.535156 138.101562 281.632812 C 138.367188 282.0625 138.144531 282.582031 137.675781 282.730469 Z M 137.675781 282.730469 " fill-opacity="1" fill-rule="nonzero"/></g></g></g><g clip-path="url(#27cb7490aa)"><g clip-path="url(#9393847c3b)"><g clip-path="url(#287f2ef4f3)"><path fill="#8c52ff" d="M 103.84375 180.695312 C 105.042969 178.386719 107.90625 177.480469 110.214844 178.679688 C 112.523438 179.882812 113.429688 182.746094 112.230469 185.054688 C 111.027344 187.363281 108.164062 188.265625 105.855469 187.066406 C 103.546875 185.867188 102.644531 183 103.84375 180.695312 Z M 96.308594 207.121094 C 98.617188 208.324219 101.480469 207.417969 102.679688 205.109375 C 103.878906 202.800781 102.976562 199.9375 100.667969 198.738281 C 98.359375 197.535156 95.496094 198.441406 94.292969 200.75 C 93.09375 203.058594 94 205.921875 96.308594 207.121094 Z M 86.757812 227.179688 C 89.066406 228.378906 91.933594 227.472656 93.132812 225.164062 C 94.332031 222.859375 93.425781 219.992188 91.121094 218.792969 C 88.8125 217.59375 85.945312 218.496094 84.746094 220.804688 C 83.546875 223.113281 84.449219 225.976562 86.757812 227.179688 Z M 77.210938 247.234375 C 79.519531 248.433594 82.382812 247.53125 83.582031 245.222656 C 84.785156 242.914062 83.878906 240.046875 81.570312 238.847656 C 79.261719 237.648438 76.398438 238.554688 75.199219 240.859375 C 73.996094 243.167969 74.902344 246.035156 77.210938 247.234375 Z M 95.8125 273.765625 C 99.46875 275.667969 103.972656 274.246094 105.871094 270.589844 C 107.769531 266.9375 106.347656 262.433594 102.695312 260.535156 C 99.039062 258.632812 94.539062 260.054688 92.636719 263.710938 C 90.738281 267.363281 92.160156 271.867188 95.8125 273.765625 Z M 92.355469 280.421875 C 88.699219 278.523438 84.199219 279.945312 82.296875 283.597656 C 80.398438 287.253906 81.820312 291.753906 85.472656 293.65625 C 89.128906 295.554688 93.628906 294.132812 95.53125 290.476562 C 97.429688 286.824219 96.007812 282.320312 92.355469 280.421875 Z M 67.664062 267.289062 C 69.96875 268.488281 72.835938 267.585938 74.035156 265.277344 C 75.234375 262.96875 74.332031 260.105469 72.023438 258.902344 C 69.714844 257.703125 66.847656 258.609375 65.648438 260.917969 C 64.449219 263.226562 65.355469 266.089844 67.664062 267.289062 Z M 62.472656 278.960938 C 60.167969 277.757812 57.300781 278.664062 56.101562 280.972656 C 54.902344 283.28125 55.804688 286.144531 58.113281 287.34375 C 60.421875 288.546875 63.285156 287.640625 64.488281 285.332031 C 65.6875 283.023438 64.78125 280.160156 62.472656 278.960938 Z M 62.472656 278.960938 " fill-opacity="1" fill-rule="nonzero"/></g></g></g><g clip-path="url(#f556ebb1ca)"><g clip-path="url(#f6621b5db4)"><g clip-path="url(#58d3e5e365)"><path fill="#0c0808" d="M 92.125 280.300781 C 91.816406 280.140625 91.449219 280 91.101562 279.917969 C 92.359375 277.589844 93.578125 275.339844 94.855469 273.167969 C 95.199219 273.445312 95.621094 273.667969 96.046875 273.886719 C 94.789062 276.019531 93.574219 278.171875 92.394531 280.441406 C 92.316406 280.402344 92.21875 280.304688 92.125 280.300781 Z M 138.523438 283.167969 C 138.359375 283.574219 138.046875 283.898438 137.636719 284.027344 C 127.980469 287.558594 119.152344 295.234375 109.792969 308.15625 C 102.4375 318.359375 96.535156 326.136719 87.328125 333.320312 C 77.371094 341.097656 65.074219 342.664062 53.535156 337.691406 C 52.746094 337.332031 51.917969 336.949219 51.148438 336.550781 C 44.917969 333.308594 40.261719 328.542969 37.3125 322.367188 C 32.789062 313.027344 33.238281 301.824219 38.445312 292.464844 C 40.621094 288.5625 43.539062 283.234375 46.953125 276.949219 L 41.605469 274.167969 L 35.246094 286.402344 L 34.015625 285.761719 L 96.398438 165.78125 L 97.632812 166.417969 L 93.449219 174.460938 L 99.414062 177.558594 C 116.453125 143.757812 117.039062 138.394531 106.078125 132.695312 C 106.039062 132.675781 105.960938 132.632812 105.921875 132.613281 C 99.769531 129.414062 92.265625 129.277344 87.003906 129.714844 C 86.128906 129.800781 85.261719 129.496094 84.628906 128.921875 C 84 128.351562 83.625 127.566406 83.601562 126.675781 L 83.519531 120.722656 C 83.53125 119.945312 84.125 119.277344 84.902344 119.191406 C 96.496094 118.035156 124.039062 122.488281 130.441406 143.261719 C 132.269531 149.148438 131.378906 156.210938 127.664062 165.519531 C 126.167969 169.335938 124.363281 173.085938 122.761719 176.359375 C 122.21875 177.496094 121.71875 178.554688 121.214844 179.613281 C 109.035156 205.386719 97.195312 231.824219 85.738281 257.433594 C 80.027344 270.199219 74.117188 283.351562 68.269531 296.292969 C 66.3125 299.769531 65.941406 302.558594 67.144531 304.84375 C 67.898438 306.3125 69.316406 307.4375 71.011719 307.929688 C 77.90625 309.902344 81.917969 300.113281 84.542969 293.660156 C 84.601562 293.542969 84.644531 293.371094 84.703125 293.253906 C 84.992188 293.453125 85.339844 293.632812 85.683594 293.8125 C 85.78125 293.816406 85.859375 293.855469 85.933594 293.894531 C 85.933594 293.992188 85.894531 294.070312 85.855469 294.144531 C 83.210938 300.640625 78.773438 311.523438 70.644531 309.207031 C 68.558594 308.609375 66.835938 307.226562 65.914062 305.425781 C 64.503906 302.6875 64.863281 299.457031 67.019531 295.59375 C 72.828125 282.730469 78.757812 269.539062 84.449219 256.8125 C 95.90625 231.203125 107.769531 204.726562 119.945312 178.953125 C 120.449219 177.894531 120.96875 176.796875 121.511719 175.660156 C 123.113281 172.390625 124.898438 168.675781 126.414062 164.917969 C 130.007812 155.9375 130.851562 149.144531 129.136719 143.609375 C 122.367188 121.761719 92.125 119.867188 85.015625 120.570312 C 84.957031 120.589844 84.878906 120.644531 84.898438 120.703125 L 85.035156 126.640625 C 85.027344 127.125 85.234375 127.574219 85.597656 127.910156 C 85.960938 128.246094 86.421875 128.386719 86.929688 128.355469 C 92.34375 127.898438 100.15625 128.101562 106.601562 131.402344 C 106.640625 131.421875 106.71875 131.464844 106.753906 131.484375 C 118.640625 137.664062 118.0625 143.667969 100.683594 178.21875 L 108.375 182.21875 L 107.734375 183.449219 L 100.042969 179.449219 C 99.742188 180.125 99.382812 180.816406 99.019531 181.507812 C 96.558594 186.339844 93.71875 191.898438 90.558594 197.976562 L 98.75 202.234375 L 98.109375 203.464844 L 89.917969 199.207031 C 86.898438 205.015625 83.65625 211.246094 80.277344 217.652344 L 89.78125 222.589844 L 89.140625 223.824219 L 79.636719 218.882812 C 76.4375 224.941406 73.121094 231.132812 69.882812 237.265625 L 80.152344 242.605469 L 79.515625 243.839844 L 69.242188 238.496094 C 65.925781 244.785156 62.605469 250.976562 59.449219 256.863281 L 70.527344 262.621094 L 69.886719 263.855469 L 58.769531 258.074219 C 55.234375 264.6875 51.878906 270.859375 48.902344 276.398438 L 61.519531 282.957031 L 60.878906 284.191406 L 48.261719 277.628906 C 44.84375 283.917969 41.910156 289.28125 39.734375 293.183594 C 34.761719 302.179688 34.34375 312.859375 38.621094 321.828125 C 41.773438 328.449219 47.027344 333.382812 54.175781 336.460938 C 65.269531 341.253906 77.066406 339.714844 86.550781 332.28125 C 95.601562 325.210938 101.464844 317.507812 108.757812 307.421875 C 118.296875 294.253906 127.339844 286.445312 137.25 282.800781 C 137.289062 282.820312 137.308594 282.78125 137.328125 282.742188 C 137.347656 282.703125 137.347656 282.703125 137.328125 282.648438 L 120.058594 244.054688 C 120.023438 244.035156 119.984375 244.011719 119.945312 243.992188 C 119.90625 243.972656 119.847656 243.992188 119.828125 244.03125 C 118.347656 245.753906 115.074219 249.132812 112.453125 251.824219 C 110.757812 253.582031 109.277344 255.109375 108.921875 255.511719 C 107.320312 257.464844 105.757812 259.4375 104.230469 261.527344 C 103.867188 261.191406 103.503906 260.953125 103.101562 260.695312 C 104.625 258.605469 106.230469 256.554688 107.832031 254.601562 C 108.167969 254.144531 109.605469 252.691406 111.402344 250.839844 C 113.984375 248.125 117.238281 244.785156 118.71875 243.0625 C 119.074219 242.660156 119.601562 242.496094 120.101562 242.5625 C 120.605469 242.628906 121.066406 242.964844 121.253906 243.453125 L 138.519531 282.042969 C 138.671875 282.414062 138.683594 282.863281 138.523438 283.167969 Z M 57.480469 257.453125 L 51.828125 254.511719 L 42.226562 272.976562 L 47.613281 275.777344 C 50.589844 270.238281 53.964844 264.027344 57.480469 257.453125 Z M 67.953125 237.875 L 62.066406 234.816406 L 52.46875 253.28125 L 58.121094 256.222656 C 61.277344 250.335938 64.597656 244.144531 67.953125 237.875 Z M 78.347656 218.261719 L 72.308594 215.121094 L 62.707031 233.585938 L 68.59375 236.644531 C 71.832031 230.511719 75.148438 224.320312 78.347656 218.261719 Z M 88.628906 198.585938 L 82.550781 195.425781 L 72.949219 213.890625 L 78.988281 217.03125 C 82.367188 210.625 85.605469 204.394531 88.628906 198.585938 Z M 89.304688 197.375 C 92.445312 191.335938 95.308594 185.738281 97.75 180.945312 C 98.089844 180.195312 98.429688 179.542969 98.792969 178.847656 L 92.828125 175.75 L 83.226562 194.214844 Z M 89.304688 197.375 " fill-opacity="1" fill-rule="nonzero"/></g></g></g><g clip-path="url(#ec4d66481a)"><g clip-path="url(#88ad905659)"><g clip-path="url(#f8adf8ac74)"><path fill="#4b8046" d="M 143.726562 288.855469 C 140.835938 290.089844 137.523438 288.757812 136.269531 285.90625 L 117.222656 242.089844 C 115.988281 239.199219 117.28125 235.863281 120.171875 234.628906 C 123.058594 233.398438 126.394531 234.691406 127.628906 237.578125 L 146.675781 281.398438 C 147.910156 284.289062 146.617188 287.621094 143.726562 288.855469 Z M 66.152344 118.875 C 61.558594 123.667969 50.945312 123.96875 50.945312 123.96875 L 50.882812 129.261719 L 86.886719 129.753906 L 87.035156 119.03125 Z M 66.152344 118.875 " fill-opacity="1" fill-rule="nonzero"/></g></g></g><path stroke-linecap="butt" transform="matrix(0.194114, -0.724444, 0.724444, 0.194114, 133.080142, 241.074126)" fill="none" stroke-linejoin="miter" d="M -0.00122197 0.499005 L 30.064812 0.498579 " stroke="#0c0808" stroke-width="1" stroke-opacity="1" stroke-miterlimit="4"/><path stroke-linecap="butt" transform="matrix(0.75, 0.000000000000002392, -0.000000000000002392, 0.75, 146.057441, 272.086945)" fill="none" stroke-linejoin="miter" d="M 0.00153765 0.498656 L 35.647373 0.498656 " stroke="#0c0808" stroke-width="1" stroke-opacity="1" stroke-miterlimit="4"/><path stroke-linecap="butt" transform="matrix(0.732867, -0.159392, 0.159392, 0.732867, 145.331729, 258.841975)" fill="none" stroke-linejoin="miter" d="M -0.00126193 0.497846 L 37.362017 0.500943 " stroke="#0c0808" stroke-width="1" stroke-opacity="1" stroke-miterlimit="4"/><g clip-path="url(#939e4a6625)"><g clip-path="url(#5f8eb77d02)"><g clip-path="url(#0e0f98d82c)"><path fill="#44a83b" d="M 252.269531 74.175781 C 252.269531 74.175781 257.191406 77.421875 262.582031 76.394531 C 265.492188 75.839844 267.839844 73.828125 267.246094 70.703125 C 266.011719 64.234375 247.921875 68.359375 245.710938 56.773438 C 244.648438 51.222656 247.976562 46.117188 253.769531 44.003906 L 252.804688 38.941406 L 257.4375 38.054688 L 258.382812 43.015625 C 264.742188 42.359375 268.621094 45.136719 268.621094 45.136719 L 266.699219 51.386719 C 266.699219 51.386719 262.390625 48.746094 257.601562 49.660156 C 254.371094 50.277344 252.195312 52.648438 252.710938 55.34375 C 253.933594 61.757812 271.882812 57.15625 274.1875 69.238281 C 275.234375 74.734375 272.304688 80.15625 265.890625 82.273438 L 266.839844 87.230469 L 262.191406 88.117188 L 261.238281 83.132812 C 254.132812 83.652344 249.496094 80.125 249.496094 80.125 Z M 252.269531 74.175781 " fill-opacity="1" fill-rule="nonzero"/></g></g></g><g clip-path="url(#28a6246a36)"><g clip-path="url(#316c04c03b)"><g clip-path="url(#d2a7c55504)"><path fill="#44a83b" d="M 279.675781 62.730469 C 279.675781 62.730469 284.066406 66.664062 289.550781 66.4375 C 292.511719 66.3125 295.128906 64.671875 294.996094 61.488281 C 294.722656 54.910156 276.226562 56.339844 275.734375 44.554688 C 275.5 38.910156 279.539062 34.347656 285.582031 33.105469 L 285.367188 27.953125 L 290.078125 27.757812 L 290.289062 32.800781 C 296.671875 33.085938 300.105469 36.402344 300.105469 36.402344 L 297.289062 42.300781 C 297.289062 42.300781 293.410156 39.0625 288.539062 39.261719 C 285.253906 39.402344 282.753906 41.425781 282.871094 44.167969 C 283.140625 50.691406 301.566406 48.769531 302.078125 61.058594 C 302.3125 66.648438 298.617188 71.582031 291.964844 72.734375 L 292.175781 77.78125 L 287.445312 77.976562 L 287.234375 72.90625 C 280.132812 72.378906 276.058594 68.210938 276.058594 68.210938 Z M 279.675781 62.730469 " fill-opacity="1" fill-rule="nonzero"/></g></g></g><g clip-path="url(#261b9840a7)"><g clip-path="url(#d3d63d3eff)"><g clip-path="url(#e31b91738f)"><path fill="#44a83b" d="M 308.886719 67.066406 C 308.886719 67.066406 312.550781 71.683594 317.992188 72.386719 C 320.933594 72.765625 323.792969 71.585938 324.199219 68.425781 C 325.039062 61.898438 306.566406 60.183594 308.070312 48.484375 C 308.792969 42.882812 313.542969 39.066406 319.707031 38.863281 L 320.363281 33.75 L 325.042969 34.351562 L 324.398438 39.355469 C 330.644531 40.710938 333.464844 44.5625 333.464844 44.5625 L 329.695312 49.902344 C 329.695312 49.902344 326.421875 46.054688 321.585938 45.429688 C 318.324219 45.011719 315.519531 46.585938 315.167969 49.308594 C 314.335938 55.78125 332.820312 57 331.25 69.199219 C 330.535156 74.746094 326.0625 78.988281 319.308594 79 L 318.667969 84.007812 L 313.972656 83.402344 L 314.621094 78.371094 C 307.707031 76.652344 304.398438 71.855469 304.398438 71.855469 Z M 308.886719 67.066406 " fill-opacity="1" fill-rule="nonzero"/></g></g></g><g clip-path="url(#c0a15428f4)"><path fill="#8c52ff" d="M 333.203125 27.226562 C 333.433594 26.996094 333.675781 26.773438 333.890625 26.527344 C 333.96875 26.4375 334.011719 26.289062 334.023438 26.164062 C 334.035156 25.980469 334 25.769531 334.195312 25.675781 C 334.613281 25.472656 334.53125 24.9375 334.871094 24.691406 C 334.8125 24.234375 335.3125 24.140625 335.4375 23.800781 C 335.542969 23.515625 335.617188 23.203125 335.792969 22.96875 C 336.011719 22.675781 336.320312 22.449219 336.558594 22.226562 C 336.578125 21.894531 336.46875 21.589844 336.773438 21.40625 C 337.105469 21.203125 337.074219 20.753906 337.367188 20.527344 C 337.3125 20.21875 337.65625 20.078125 337.679688 19.816406 C 337.710938 19.488281 337.996094 19.378906 338.164062 19.171875 C 338.304688 18.996094 338.257812 18.761719 338.441406 18.574219 C 338.609375 18.402344 338.605469 18.074219 338.851562 17.910156 C 338.929688 17.859375 339.042969 17.78125 339.042969 17.714844 C 339.050781 17.28125 339.253906 16.972656 339.527344 16.636719 C 339.742188 16.371094 339.859375 16.011719 340.144531 15.777344 C 340.175781 15.75 340.222656 15.699219 340.214844 15.671875 C 340.066406 15.09375 340.546875 14.863281 340.832031 14.515625 C 341.027344 14.28125 341.121094 13.941406 341.347656 13.761719 C 341.65625 13.515625 341.59375 13.085938 341.921875 12.855469 C 342.207031 12.652344 342.511719 12.40625 342.527344 11.992188 C 343.097656 11.902344 343.382812 11.136719 344.085938 11.332031 C 344.253906 11.378906 344.445312 11.339844 344.589844 11.339844 C 344.804688 11.582031 345.058594 11.714844 345.015625 12.070312 C 344.972656 12.4375 345.007812 12.8125 345.007812 13.167969 C 344.925781 13.25 344.863281 13.324219 344.792969 13.382812 C 344.191406 13.882812 343.785156 14.507812 343.488281 15.230469 C 343.355469 15.546875 343.230469 15.882812 342.914062 16.125 C 342.414062 16.515625 342.277344 17.230469 341.714844 17.585938 C 341.480469 18.28125 341.085938 18.867188 340.527344 19.34375 C 340.5 19.367188 340.5 19.429688 340.503906 19.472656 C 340.53125 19.761719 340.511719 20.03125 340.226562 20.199219 C 340.339844 20.523438 339.929688 20.636719 339.9375 20.925781 C 339.945312 21.199219 339.648438 21.265625 339.535156 21.460938 C 339.425781 21.644531 339.378906 21.894531 339.226562 22.027344 C 338.9375 22.273438 339.265625 22.671875 338.945312 22.90625 C 338.71875 23.066406 338.515625 23.273438 338.351562 23.5 C 338.199219 23.707031 338.082031 23.964844 337.996094 24.191406 C 337.777344 24.746094 337.523438 25.253906 337.050781 25.621094 C 336.773438 25.839844 336.863281 26.117188 336.839844 26.445312 C 336.636719 26.636719 336.390625 26.851562 336.167969 27.085938 C 336.082031 27.175781 335.996094 27.328125 336.011719 27.433594 C 336.0625 27.765625 335.875 27.953125 335.664062 28.140625 C 335.5625 28.238281 335.464844 28.339844 335.363281 28.445312 C 335.105469 28.574219 334.824219 28.492188 334.554688 28.507812 C 334.324219 28.519531 334.09375 28.511719 333.890625 28.511719 C 333.617188 28.265625 333.359375 28.058594 333.464844 27.664062 C 333.523438 27.441406 333.253906 27.394531 333.203125 27.226562 Z M 333.203125 27.226562 " fill-opacity="1" fill-rule="nonzero"/></g><path fill="#8c52ff" d="M 349.117188 38.363281 C 348.808594 38.539062 348.683594 38.992188 348.230469 38.9375 C 348.078125 39.128906 347.902344 39.214844 347.640625 39.21875 C 347.289062 39.222656 346.917969 39.074219 346.59375 39.421875 C 346.398438 39.632812 345.980469 39.382812 345.730469 39.71875 C 345.585938 39.910156 345.203125 39.652344 344.980469 39.925781 C 344.8125 40.128906 344.457031 40.050781 344.292969 40.320312 C 344.273438 40.355469 344.050781 40.273438 343.925781 40.238281 C 343.828125 40.207031 343.78125 39.949219 343.628906 40.164062 C 343.507812 40.339844 343.246094 40.269531 343.164062 40.375 C 342.976562 40.617188 342.648438 40.546875 342.46875 40.757812 C 342.113281 41.1875 341.933594 40.613281 341.660156 40.621094 C 341.371094 40.625 341.117188 40.609375 340.917969 40.347656 C 340.863281 40.273438 340.671875 40.300781 340.527344 40.277344 L 340.527344 38.738281 C 340.976562 38.632812 341.308594 38.238281 341.796875 38.335938 C 342.007812 37.875 342.625 38.285156 342.867188 37.847656 C 342.90625 37.78125 343.132812 37.777344 343.257812 37.804688 C 343.613281 37.886719 343.839844 37.585938 344.128906 37.535156 C 344.402344 37.484375 344.6875 37.527344 344.859375 37.246094 C 345.238281 37.304688 345.464844 36.929688 345.863281 36.921875 C 346.179688 36.917969 346.472656 36.621094 346.871094 36.65625 C 347.261719 36.691406 347.566406 36.328125 348.023438 36.363281 C 348.386719 36.394531 348.730469 36.035156 349.144531 36.054688 C 349.335938 35.613281 349.84375 35.996094 350.117188 35.667969 C 350.347656 35.390625 350.734375 35.601562 351.042969 35.546875 C 351.171875 35.523438 351.320312 35.519531 351.425781 35.453125 C 351.722656 35.265625 352.039062 35.085938 352.363281 35.003906 C 352.714844 34.917969 353.105469 34.984375 353.480469 34.984375 L 353.875 34.984375 C 354.058594 34.800781 354.226562 34.632812 354.4375 34.421875 C 354.757812 34.421875 355.140625 34.476562 355.492188 34.402344 C 355.734375 34.351562 355.910156 34.078125 356.226562 34.132812 C 356.503906 34.183594 356.785156 34.160156 356.957031 33.871094 L 358.082031 33.871094 C 358.28125 34.339844 358.734375 34.746094 358.375 35.523438 C 358.191406 35.675781 357.835938 35.976562 357.359375 36.378906 C 357.25 36.390625 356.9375 36.425781 356.621094 36.457031 C 356.4375 36.855469 355.996094 36.527344 355.765625 36.761719 C 355.625 36.90625 355.484375 36.960938 355.28125 36.964844 C 355.019531 36.964844 354.730469 36.851562 354.515625 37.148438 C 354.332031 37.394531 353.945312 37.074219 353.761719 37.355469 C 353.546875 37.695312 353.121094 37.347656 352.894531 37.648438 C 352.6875 37.921875 352.355469 37.84375 352.121094 37.78125 C 351.652344 37.65625 351.402344 38.183594 350.96875 38.082031 C 350.667969 38.015625 350.570312 38.4375 350.238281 38.371094 C 349.96875 38.320312 349.679688 38.363281 349.398438 38.363281 C 349.304688 38.363281 349.210938 38.363281 349.117188 38.363281 Z M 349.117188 38.363281 " fill-opacity="1" fill-rule="nonzero"/><g clip-path="url(#c35ede878b)"><path fill="#8c52ff" d="M 363.578125 57.738281 C 363.578125 58.367188 363.5625 58.359375 363.3125 58.929688 C 363.253906 59.066406 363.207031 59.136719 363.070312 59.199219 C 362.660156 59.390625 362.246094 59.472656 361.785156 59.503906 C 361.398438 59.53125 361.292969 59.078125 360.914062 59.179688 C 360.601562 59.261719 360.269531 59.226562 360.042969 58.917969 C 360.011719 58.875 359.824219 58.878906 359.78125 58.929688 C 359.523438 59.21875 359.28125 59.339844 358.992188 58.96875 C 358.96875 58.9375 358.917969 58.914062 358.878906 58.914062 C 358.390625 58.882812 357.867188 59.042969 357.445312 58.636719 C 357.398438 58.589844 357.265625 58.636719 357.171875 58.628906 C 356.414062 58.546875 355.605469 58.855469 354.902344 58.347656 C 354.339844 58.347656 353.777344 58.375 353.21875 58.339844 C 352.777344 58.316406 352.300781 58.515625 351.90625 58.101562 C 351.816406 58.003906 351.550781 58.070312 351.367188 58.066406 C 350.761719 58.066406 350.152344 58.082031 349.542969 58.054688 C 349.382812 58.050781 349.230469 57.910156 349.058594 57.824219 C 348.996094 57.882812 348.894531 57.976562 348.796875 58.066406 L 345.988281 58.066406 C 345.789062 57.863281 345.597656 57.660156 345.390625 57.472656 C 345.214844 57.3125 345.359375 57.007812 345.097656 56.882812 C 345.042969 56.855469 345.003906 56.722656 345.011719 56.648438 C 345.046875 56.351562 345.621094 55.832031 345.992188 55.824219 C 346.40625 55.820312 346.667969 55.398438 347.140625 55.515625 C 347.539062 55.609375 347.980469 55.535156 348.398438 55.535156 C 349.054688 55.535156 349.714844 55.496094 350.363281 55.542969 C 350.984375 55.589844 351.660156 55.296875 352.214844 55.816406 C 352.632812 55.816406 353.058594 55.777344 353.476562 55.824219 C 354.1875 55.90625 354.957031 55.539062 355.605469 56.097656 C 355.933594 56.097656 356.261719 56.105469 356.589844 56.09375 C 356.828125 56.082031 357.003906 56.160156 357.207031 56.304688 C 357.417969 56.457031 357.738281 56.46875 357.953125 56.230469 C 358.085938 56.085938 358.160156 56.152344 358.253906 56.257812 C 358.285156 56.292969 358.316406 56.347656 358.355469 56.351562 C 358.667969 56.390625 359.0625 56.316406 359.277344 56.480469 C 359.542969 56.683594 359.789062 56.648438 360.054688 56.65625 C 360.519531 56.667969 360.988281 56.660156 361.457031 56.660156 C 361.726562 57.097656 362.359375 56.78125 362.628906 57.222656 C 363.023438 57.175781 363.371094 57.25 363.578125 57.738281 Z M 363.578125 57.738281 " fill-opacity="1" fill-rule="nonzero"/></g><path fill="#8c52ff" d="M 345.835938 73.671875 C 345.863281 73.398438 345.832031 73.0625 345.9375 72.777344 C 346.074219 72.417969 346.53125 72.414062 346.816406 72.195312 C 347 72.054688 347.394531 72.019531 347.550781 72.3125 C 347.777344 72.722656 348.296875 72.640625 348.546875 73 C 348.78125 73.339844 349.304688 73.296875 349.53125 73.691406 C 349.578125 73.777344 349.765625 73.832031 349.886719 73.820312 C 350.277344 73.792969 350.507812 74.148438 350.859375 74.195312 C 351.285156 74.761719 351.992188 74.871094 352.546875 75.222656 C 352.953125 75.480469 353.445312 75.589844 353.785156 75.976562 C 353.886719 76.09375 354.136719 76.078125 354.246094 76.191406 C 354.472656 76.425781 354.851562 76.367188 355.042969 76.675781 C 355.242188 76.988281 355.644531 77.023438 355.945312 77.203125 C 356.207031 77.355469 356.578125 77.386719 356.753906 77.59375 C 357.019531 77.90625 357.367188 77.667969 357.644531 77.863281 C 358.140625 78.222656 358.796875 78.347656 359.191406 78.871094 C 359.574219 78.839844 359.71875 79.191406 359.976562 79.359375 C 360.226562 79.523438 360.539062 79.589844 360.796875 79.75 C 361.179688 79.980469 361.554688 80.210938 361.652344 80.738281 C 361.6875 80.921875 361.945312 81.035156 361.671875 81.25 C 361.597656 81.3125 361.628906 81.507812 361.609375 81.640625 C 361.597656 81.730469 361.597656 81.882812 361.558594 81.890625 C 361.179688 81.992188 360.847656 82.460938 360.464844 82.253906 C 360.003906 82.003906 359.367188 82.097656 359.0625 81.554688 C 358.707031 81.445312 358.429688 81.234375 358.175781 80.964844 C 358.101562 80.886719 357.925781 80.867188 357.800781 80.875 C 357.589844 80.890625 357.453125 80.8125 357.320312 80.664062 C 357.136719 80.457031 356.960938 80.222656 356.625 80.304688 C 356.410156 80.351562 356.285156 80.203125 356.164062 80.0625 C 355.976562 79.84375 355.773438 79.671875 355.449219 79.734375 C 355.375 79.75 355.246094 79.714844 355.207031 79.660156 C 354.972656 79.292969 354.554688 79.191406 354.21875 78.980469 C 353.929688 78.796875 353.53125 78.765625 353.277344 78.554688 C 352.960938 78.296875 352.507812 78.273438 352.273438 77.882812 C 352.199219 77.761719 351.921875 77.785156 351.816406 77.667969 C 351.59375 77.421875 351.226562 77.476562 351.007812 77.191406 C 350.832031 76.960938 350.519531 76.738281 350.246094 76.710938 C 349.902344 76.675781 349.746094 76.289062 349.394531 76.363281 C 348.996094 75.839844 348.347656 75.722656 347.828125 75.390625 C 347.753906 75.339844 347.675781 75.238281 347.613281 75.246094 C 346.984375 75.335938 346.703125 74.871094 346.433594 74.464844 C 346.34375 74.332031 346.308594 74.140625 346.171875 74.011719 C 346.070312 73.914062 345.972656 73.8125 345.832031 73.671875 Z M 345.835938 73.671875 " fill-opacity="1" fill-rule="nonzero"/><path fill="#8c52ff" d="M 341.917969 89.449219 C 341.910156 88.757812 341.578125 88.246094 341.105469 87.804688 C 341.335938 87.328125 341.574219 86.855469 342.117188 86.484375 C 342.429688 86.507812 342.867188 86.449219 343.234375 86.585938 C 343.621094 86.730469 343.730469 87.21875 343.851562 87.574219 C 343.972656 87.925781 344.386719 88.050781 344.40625 88.320312 C 344.429688 88.722656 344.667969 88.703125 344.90625 88.8125 C 345.0625 88.878906 345.289062 89.09375 345.265625 89.203125 C 345.160156 89.722656 345.632812 89.914062 345.777344 90.269531 C 345.921875 90.632812 346.132812 90.910156 346.410156 91.121094 C 346.695312 91.332031 346.621094 91.730469 346.902344 91.90625 C 347.199219 92.089844 347.183594 92.46875 347.402344 92.683594 C 347.632812 92.910156 347.75 93.191406 347.917969 93.449219 C 348.082031 93.707031 348.058594 94.089844 348.386719 94.246094 C 348.671875 94.378906 348.632812 94.707031 348.78125 94.925781 C 348.949219 95.179688 349.109375 95.445312 349.21875 95.726562 C 349.417969 96.230469 349.671875 96.679688 350.066406 97.066406 C 350.28125 97.277344 350.429688 97.566406 350.566406 97.839844 C 350.71875 98.148438 350.535156 98.574219 350.960938 98.808594 C 351.285156 98.980469 351.226562 99.472656 351.5625 99.675781 C 351.742188 99.78125 351.707031 99.992188 351.777344 100.148438 C 352.054688 100.757812 352.046875 100.855469 351.488281 101.136719 C 350.722656 101.523438 350.511719 101.5 349.75 101.152344 C 349.519531 101.042969 349.585938 100.828125 349.496094 100.753906 C 348.714844 100.09375 348.40625 99.148438 347.9375 98.296875 C 347.792969 98.03125 347.667969 97.753906 347.539062 97.480469 C 347.5 97.402344 347.492188 97.300781 347.4375 97.242188 C 347.246094 97.035156 347.03125 96.851562 346.847656 96.640625 C 346.769531 96.546875 346.699219 96.402344 346.703125 96.285156 C 346.707031 95.96875 346.679688 95.722656 346.265625 95.777344 C 346.238281 95.785156 346.179688 95.722656 346.167969 95.683594 C 346.070312 95.296875 345.902344 94.910156 345.648438 94.644531 C 345.359375 94.335938 345.308594 93.914062 345.011719 93.628906 C 344.925781 93.550781 344.949219 93.363281 344.871094 93.273438 C 344.65625 93.027344 344.277344 92.835938 344.214844 92.5625 C 344.128906 92.199219 343.835938 92.058594 343.695312 91.789062 C 343.550781 91.511719 343.339844 91.265625 343.210938 91.003906 C 342.894531 90.363281 342.351562 89.949219 341.917969 89.449219 Z M 341.917969 89.449219 " fill-opacity="1" fill-rule="nonzero"/><path fill="#8c52ff" d="M 346.695312 26.367188 L 346.695312 27.804688 C 346.351562 28.246094 345.742188 28.332031 345.417969 28.792969 C 345.132812 28.722656 345.003906 28.9375 344.839844 29.097656 C 344.640625 29.296875 344.410156 29.472656 344.253906 29.699219 C 344.078125 29.960938 343.71875 29.835938 343.566406 30.09375 C 343.390625 30.390625 343.042969 30.421875 342.792969 30.597656 C 342.566406 30.757812 342.394531 30.992188 342.191406 31.183594 C 342.128906 31.242188 342.035156 31.328125 341.96875 31.316406 C 341.394531 31.210938 341.179688 31.703125 340.832031 31.976562 C 340.453125 32.273438 339.953125 32.363281 339.5625 32.660156 C 339.511719 32.699219 339.28125 32.445312 339.15625 32.464844 C 338.578125 32.554688 338.351562 32.089844 338.023438 31.789062 C 338.011719 31.777344 338.089844 31.667969 338.117188 31.597656 C 338.167969 31.476562 338.261719 31.34375 338.242188 31.234375 C 338.179688 30.886719 338.40625 30.703125 338.625 30.550781 C 338.820312 30.414062 339.210938 30.5 339.105469 30.058594 C 339.101562 30.027344 339.242188 29.957031 339.320312 29.921875 C 339.597656 29.796875 339.949219 29.75 340.140625 29.546875 C 340.429688 29.234375 340.835938 29.136719 341.128906 28.863281 C 341.460938 28.554688 341.769531 28.246094 342.203125 28.058594 C 342.566406 27.902344 342.675781 27.363281 343.1875 27.363281 C 343.285156 27.363281 343.394531 27.183594 343.484375 27.078125 C 343.957031 26.511719 344.5625 26.164062 345.230469 25.867188 C 345.433594 25.773438 345.476562 25.785156 345.644531 25.890625 C 345.976562 26.09375 346.351562 26.21875 346.695312 26.371094 Z M 346.695312 26.367188 " fill-opacity="1" fill-rule="nonzero"/><path fill="#8c52ff" d="M 350.5 46.808594 C 350.964844 47.351562 351.183594 47.847656 351.203125 48.253906 C 351.226562 48.683594 351.046875 48.976562 350.632812 49.046875 C 350.417969 49.082031 350.363281 49.304688 350.195312 49.3125 C 350.101562 49.3125 350 49.167969 349.898438 49.089844 C 349.636719 49.488281 349.226562 49.28125 348.882812 49.347656 C 348.671875 49.390625 348.484375 49.777344 348.261719 49.359375 C 347.890625 49.355469 347.519531 49.347656 347.148438 49.339844 C 346.851562 49.679688 346.578125 49.734375 346.246094 49.355469 C 346.164062 49.265625 345.855469 49.285156 345.710938 49.363281 C 345.519531 49.46875 345.339844 49.769531 345.136719 49.585938 C 344.820312 49.296875 344.304688 49.3125 344.140625 48.765625 C 343.964844 48.191406 343.886719 48.210938 343.90625 47.480469 C 344.109375 47.3125 344.449219 47.378906 344.582031 47.089844 C 344.863281 47.089844 345.144531 47.074219 345.425781 47.09375 C 345.628906 47.109375 345.769531 47.046875 345.910156 46.898438 C 346.09375 46.707031 346.382812 46.757812 346.558594 46.84375 C 346.753906 46.9375 346.863281 47.160156 347.070312 46.867188 C 347.105469 46.816406 347.234375 46.8125 347.320312 46.808594 C 348.390625 46.808594 349.460938 46.808594 350.5 46.808594 Z M 350.5 46.808594 " fill-opacity="1" fill-rule="nonzero"/><path fill="#8c52ff" d="M 345.007812 82.136719 C 344.984375 81.863281 345.054688 81.601562 344.816406 81.355469 C 344.660156 81.191406 344.644531 80.890625 344.480469 80.691406 C 344.777344 80.515625 344.691406 80.21875 344.734375 79.953125 C 344.777344 79.6875 345.148438 79.46875 345.464844 79.460938 C 345.648438 79.457031 345.832031 79.460938 345.992188 79.460938 C 346.28125 79.75 346.546875 80.015625 346.8125 80.28125 C 347.074219 80.546875 347.339844 80.808594 347.605469 81.074219 C 347.871094 81.339844 348.117188 81.625 348.402344 81.863281 C 348.679688 82.09375 348.828125 82.480469 349.238281 82.558594 C 349.636719 82.640625 349.769531 83.050781 350.070312 83.253906 C 350.035156 83.570312 350.214844 83.949219 349.964844 84.1875 C 349.773438 84.367188 349.894531 84.6875 349.675781 84.765625 C 349.460938 84.839844 349.285156 84.945312 349.09375 85.0625 C 348.667969 85.324219 348.375 84.765625 347.960938 84.804688 C 347.933594 84.808594 347.898438 84.742188 347.863281 84.710938 C 347.410156 84.269531 346.957031 83.84375 346.40625 83.492188 C 345.867188 83.148438 345.464844 82.59375 345.007812 82.136719 Z M 345.007812 82.136719 " fill-opacity="1" fill-rule="nonzero"/><path fill="#8c52ff" d="M 352.042969 67.222656 C 351.855469 67.429688 351.578125 67.3125 351.421875 67.539062 C 351.269531 67.761719 350.992188 67.597656 350.769531 67.632812 C 350.5625 67.289062 350.222656 67.355469 349.90625 67.355469 C 349.8125 67.355469 349.664062 67.375 349.640625 67.332031 C 349.433594 66.910156 348.945312 67.207031 348.671875 66.949219 C 348.582031 66.867188 348.441406 66.824219 348.320312 66.796875 C 348.0625 66.742188 347.667969 66.9375 347.570312 66.640625 C 347.496094 66.414062 347.394531 66.242188 347.257812 66.066406 C 347.429688 65.792969 346.886719 65.6875 347.105469 65.394531 C 347.332031 65.09375 347.339844 64.605469 347.84375 64.539062 C 347.902344 64.53125 348.410156 64.515625 348.59375 64.539062 C 348.636719 64.546875 348.6875 64.546875 348.730469 64.539062 C 349.105469 64.492188 349.410156 64.632812 349.746094 64.800781 C 350.042969 64.949219 350.457031 64.703125 350.769531 65.058594 C 350.875 65.175781 351.207031 65.101562 351.4375 65.101562 C 351.664062 65.097656 351.695312 65.226562 351.78125 65.414062 C 351.933594 65.742188 352.101562 66.039062 352.050781 66.425781 C 352.015625 66.695312 352.042969 66.976562 352.042969 67.222656 Z M 352.042969 67.222656 " fill-opacity="1" fill-rule="nonzero"/><path fill="#8c52ff" d="M 240.84375 30.917969 C 240.59375 30.710938 240.332031 30.515625 240.089844 30.289062 C 240.003906 30.207031 239.945312 30.066406 239.925781 29.941406 C 239.894531 29.761719 239.90625 29.546875 239.703125 29.472656 C 239.265625 29.3125 239.300781 28.769531 238.933594 28.558594 C 238.949219 28.097656 238.441406 28.050781 238.285156 27.726562 C 238.152344 27.453125 238.046875 27.148438 237.851562 26.933594 C 237.601562 26.664062 237.273438 26.464844 237.015625 26.269531 C 236.960938 25.941406 237.039062 25.628906 236.722656 25.472656 C 236.371094 25.304688 236.359375 24.855469 236.042969 24.65625 C 236.066406 24.34375 235.710938 24.238281 235.660156 23.980469 C 235.601562 23.660156 235.304688 23.578125 235.117188 23.390625 C 234.957031 23.226562 234.984375 22.988281 234.785156 22.820312 C 234.597656 22.664062 234.570312 22.335938 234.308594 22.199219 C 234.226562 22.15625 234.105469 22.089844 234.097656 22.023438 C 234.046875 21.59375 233.816406 21.304688 233.511719 21 C 233.273438 20.753906 233.121094 20.410156 232.8125 20.203125 C 232.777344 20.179688 232.726562 20.132812 232.730469 20.105469 C 232.824219 19.515625 232.320312 19.332031 232.003906 19.015625 C 231.789062 18.800781 231.664062 18.46875 231.417969 18.3125 C 231.085938 18.097656 231.105469 17.667969 230.757812 17.46875 C 230.453125 17.296875 230.128906 17.082031 230.074219 16.667969 C 229.496094 16.636719 229.136719 15.902344 228.457031 16.167969 C 228.292969 16.230469 228.097656 16.207031 227.957031 16.222656 C 227.765625 16.484375 227.523438 16.644531 227.601562 16.988281 C 227.679688 17.351562 227.683594 17.730469 227.71875 18.085938 C 227.808594 18.15625 227.878906 18.222656 227.953125 18.277344 C 228.601562 18.714844 229.066406 19.296875 229.433594 19.988281 C 229.59375 20.289062 229.753906 20.609375 230.089844 20.820312 C 230.628906 21.160156 230.835938 21.855469 231.425781 22.15625 C 231.726562 22.828125 232.175781 23.371094 232.78125 23.789062 C 232.808594 23.808594 232.816406 23.871094 232.816406 23.914062 C 232.820312 24.203125 232.867188 24.472656 233.164062 24.613281 C 233.082031 24.945312 233.503906 25.015625 233.523438 25.304688 C 233.542969 25.578125 233.84375 25.617188 233.976562 25.796875 C 234.101562 25.972656 234.175781 26.214844 234.339844 26.332031 C 234.648438 26.550781 234.363281 26.980469 234.707031 27.179688 C 234.945312 27.316406 235.167969 27.503906 235.355469 27.710938 C 235.523438 27.902344 235.667969 28.148438 235.777344 28.363281 C 236.046875 28.898438 236.351562 29.378906 236.855469 29.699219 C 237.15625 29.886719 237.09375 30.171875 237.148438 30.496094 C 237.367188 30.667969 237.636719 30.855469 237.878906 31.070312 C 237.972656 31.152344 238.074219 31.292969 238.070312 31.402344 C 238.050781 31.734375 238.253906 31.902344 238.480469 32.070312 C 238.59375 32.152344 238.699219 32.246094 238.8125 32.339844 C 239.082031 32.445312 239.351562 32.335938 239.625 32.324219 C 239.855469 32.316406 240.082031 32.28125 240.28125 32.265625 C 240.53125 31.992188 240.765625 31.761719 240.625 31.378906 C 240.546875 31.164062 240.808594 31.089844 240.84375 30.917969 Z M 240.84375 30.917969 " fill-opacity="1" fill-rule="nonzero"/><path fill="#8c52ff" d="M 226.097656 43.558594 C 226.417969 43.703125 226.589844 44.144531 227.035156 44.046875 C 227.203125 44.21875 227.390625 44.289062 227.652344 44.265625 C 228 44.238281 228.355469 44.054688 228.710938 44.367188 C 228.925781 44.558594 229.316406 44.265625 229.597656 44.578125 C 229.761719 44.757812 230.117188 44.460938 230.367188 44.710938 C 230.550781 44.894531 230.898438 44.785156 231.089844 45.035156 C 231.113281 45.066406 231.324219 44.96875 231.445312 44.917969 C 231.539062 44.878906 231.5625 44.617188 231.730469 44.816406 C 231.871094 44.980469 232.125 44.882812 232.214844 44.980469 C 232.429688 45.203125 232.746094 45.101562 232.945312 45.296875 C 233.34375 45.6875 233.464844 45.097656 233.738281 45.078125 C 234.027344 45.054688 234.277344 45.011719 234.449219 44.734375 C 234.496094 44.652344 234.6875 44.664062 234.832031 44.625 C 234.777344 44.089844 234.730469 43.589844 234.679688 43.097656 C 234.222656 43.03125 233.855469 42.675781 233.378906 42.820312 C 233.121094 42.378906 232.550781 42.847656 232.261719 42.4375 C 232.21875 42.375 231.992188 42.394531 231.871094 42.433594 C 231.523438 42.550781 231.273438 42.273438 230.976562 42.25 C 230.699219 42.226562 230.421875 42.296875 230.222656 42.03125 C 229.851562 42.128906 229.589844 41.777344 229.195312 41.808594 C 228.878906 41.835938 228.558594 41.570312 228.164062 41.644531 C 227.777344 41.71875 227.4375 41.382812 226.988281 41.464844 C 226.628906 41.53125 226.253906 41.207031 225.839844 41.265625 C 225.605469 40.84375 225.140625 41.277344 224.835938 40.976562 C 224.578125 40.722656 224.21875 40.972656 223.902344 40.945312 C 223.773438 40.9375 223.625 40.949219 223.511719 40.890625 C 223.199219 40.734375 222.867188 40.585938 222.539062 40.535156 C 222.179688 40.484375 221.792969 40.589844 221.421875 40.625 L 221.03125 40.664062 C 220.828125 40.5 220.644531 40.351562 220.414062 40.160156 C 220.09375 40.191406 219.722656 40.285156 219.363281 40.246094 C 219.117188 40.21875 218.914062 39.964844 218.609375 40.050781 C 218.335938 40.125 218.054688 40.128906 217.855469 39.859375 C 217.484375 39.898438 217.113281 39.933594 216.734375 39.972656 C 216.582031 40.453125 216.171875 40.902344 216.601562 41.640625 C 216.800781 41.777344 217.183594 42.042969 217.699219 42.398438 C 217.808594 42.398438 218.121094 42.398438 218.4375 42.402344 C 218.660156 42.78125 219.070312 42.410156 219.320312 42.621094 C 219.476562 42.75 219.621094 42.792969 219.820312 42.773438 C 220.082031 42.75 220.359375 42.609375 220.605469 42.882812 C 220.808594 43.109375 221.164062 42.75 221.371094 43.015625 C 221.621094 43.332031 222.007812 42.945312 222.261719 43.222656 C 222.496094 43.472656 222.820312 43.363281 223.046875 43.277344 C 223.5 43.109375 223.804688 43.609375 224.226562 43.464844 C 224.515625 43.367188 224.65625 43.78125 224.976562 43.683594 C 225.242188 43.605469 225.535156 43.617188 225.8125 43.589844 C 225.90625 43.582031 226 43.570312 226.09375 43.5625 Z M 226.097656 43.558594 " fill-opacity="1" fill-rule="nonzero"/><g clip-path="url(#ca4dda83ca)"><path fill="#8c52ff" d="M 213.601562 64.257812 C 213.660156 64.882812 213.675781 64.875 213.980469 65.414062 C 214.054688 65.546875 214.105469 65.613281 214.246094 65.660156 C 214.675781 65.8125 215.097656 65.851562 215.558594 65.839844 C 215.945312 65.828125 216.003906 65.367188 216.394531 65.433594 C 216.710938 65.484375 217.035156 65.417969 217.234375 65.085938 C 217.261719 65.039062 217.449219 65.027344 217.496094 65.070312 C 217.78125 65.332031 218.035156 65.429688 218.28125 65.035156 C 218.300781 65 218.351562 64.972656 218.390625 64.964844 C 218.875 64.886719 219.410156 64.996094 219.789062 64.550781 C 219.835938 64.5 219.972656 64.535156 220.0625 64.515625 C 220.808594 64.363281 221.640625 64.589844 222.292969 64.015625 C 222.851562 63.960938 223.414062 63.929688 223.96875 63.84375 C 224.402344 63.773438 224.898438 63.925781 225.25 63.476562 C 225.328125 63.371094 225.597656 63.410156 225.78125 63.390625 C 226.386719 63.328125 226.996094 63.285156 227.597656 63.199219 C 227.753906 63.175781 227.894531 63.023438 228.054688 62.921875 C 228.125 62.976562 228.234375 63.054688 228.34375 63.136719 C 229.273438 63.042969 230.207031 62.953125 231.136719 62.859375 C 231.316406 62.640625 231.484375 62.417969 231.671875 62.210938 C 231.832031 62.035156 231.660156 61.746094 231.90625 61.597656 C 231.957031 61.5625 231.984375 61.429688 231.96875 61.355469 C 231.90625 61.066406 231.28125 60.601562 230.914062 60.632812 C 230.503906 60.667969 230.199219 60.273438 229.738281 60.433594 C 229.351562 60.570312 228.90625 60.535156 228.488281 60.578125 C 227.835938 60.640625 227.179688 60.667969 226.535156 60.78125 C 225.921875 60.886719 225.21875 60.660156 224.71875 61.230469 C 224.300781 61.273438 223.875 61.277344 223.464844 61.363281 C 222.765625 61.511719 221.960938 61.222656 221.371094 61.84375 C 221.046875 61.875 220.722656 61.917969 220.394531 61.9375 C 220.152344 61.949219 219.984375 62.042969 219.796875 62.210938 C 219.601562 62.378906 219.289062 62.421875 219.050781 62.207031 C 218.902344 62.074219 218.832031 62.148438 218.75 62.261719 C 218.722656 62.300781 218.699219 62.359375 218.660156 62.367188 C 218.355469 62.4375 217.953125 62.402344 217.757812 62.585938 C 217.507812 62.8125 217.261719 62.800781 217 62.835938 C 216.535156 62.894531 216.070312 62.929688 215.605469 62.976562 C 215.378906 63.4375 214.71875 63.1875 214.496094 63.652344 C 214.09375 63.644531 213.757812 63.753906 213.597656 64.257812 Z M 213.601562 64.257812 " fill-opacity="1" fill-rule="nonzero"/></g><path fill="#8c52ff" d="M 232.820312 78.378906 C 232.765625 78.105469 232.761719 77.769531 232.625 77.496094 C 232.457031 77.152344 232 77.191406 231.695312 77.003906 C 231.5 76.882812 231.105469 76.886719 230.976562 77.191406 C 230.792969 77.625 230.265625 77.59375 230.054688 77.972656 C 229.851562 78.335938 229.324219 78.34375 229.140625 78.761719 C 229.101562 78.851562 228.917969 78.921875 228.800781 78.925781 C 228.410156 78.933594 228.214844 79.308594 227.867188 79.390625 C 227.5 79.996094 226.808594 80.171875 226.289062 80.578125 C 225.910156 80.875 225.433594 81.03125 225.132812 81.453125 C 225.039062 81.578125 224.789062 81.585938 224.691406 81.710938 C 224.488281 81.964844 224.109375 81.945312 223.945312 82.269531 C 223.78125 82.601562 223.382812 82.675781 223.097656 82.882812 C 222.855469 83.058594 222.488281 83.125 222.332031 83.351562 C 222.101562 83.6875 221.730469 83.484375 221.476562 83.707031 C 221.015625 84.113281 220.375 84.300781 220.03125 84.859375 C 219.644531 84.867188 219.539062 85.230469 219.296875 85.421875 C 219.066406 85.609375 218.761719 85.710938 218.519531 85.890625 C 218.160156 86.160156 217.808594 86.425781 217.765625 86.957031 C 217.75 87.144531 217.503906 87.285156 217.796875 87.472656 C 217.878906 87.523438 217.863281 87.722656 217.894531 87.855469 C 217.917969 87.9375 217.933594 88.09375 217.972656 88.097656 C 218.359375 88.160156 218.734375 88.59375 219.097656 88.351562 C 219.53125 88.058594 220.171875 88.089844 220.425781 87.519531 C 220.765625 87.375 221.023438 87.140625 221.25 86.847656 C 221.316406 86.757812 221.488281 86.722656 221.613281 86.71875 C 221.820312 86.710938 221.953125 86.621094 222.070312 86.460938 C 222.230469 86.238281 222.382812 85.988281 222.726562 86.035156 C 222.945312 86.0625 223.054688 85.898438 223.160156 85.75 C 223.328125 85.511719 223.511719 85.320312 223.839844 85.355469 C 223.917969 85.363281 224.042969 85.316406 224.074219 85.257812 C 224.273438 84.871094 224.679688 84.726562 224.992188 84.484375 C 225.261719 84.273438 225.65625 84.203125 225.886719 83.96875 C 226.175781 83.679688 226.625 83.609375 226.820312 83.203125 C 226.882812 83.074219 227.160156 83.066406 227.253906 82.941406 C 227.453125 82.675781 227.820312 82.695312 228.011719 82.390625 C 228.164062 82.144531 228.453125 81.890625 228.722656 81.835938 C 229.0625 81.769531 229.179688 81.367188 229.535156 81.40625 C 229.878906 80.847656 230.515625 80.667969 231 80.285156 C 231.070312 80.230469 231.136719 80.117188 231.203125 80.121094 C 231.835938 80.148438 232.070312 79.65625 232.300781 79.226562 C 232.375 79.089844 232.390625 78.894531 232.511719 78.753906 C 232.605469 78.644531 232.691406 78.535156 232.820312 78.382812 Z M 232.820312 78.378906 " fill-opacity="1" fill-rule="nonzero"/><g clip-path="url(#257cadb58c)"><path fill="#8c52ff" d="M 238.261719 93.695312 C 238.199219 93.007812 238.480469 92.464844 238.910156 91.980469 C 238.632812 91.527344 238.347656 91.082031 237.769531 90.765625 C 237.464844 90.816406 237.023438 90.804688 236.671875 90.976562 C 236.300781 91.15625 236.238281 91.65625 236.152344 92.019531 C 236.070312 92.382812 235.667969 92.546875 235.675781 92.816406 C 235.6875 93.21875 235.449219 93.226562 235.222656 93.355469 C 235.074219 93.4375 234.871094 93.675781 234.902344 93.777344 C 235.058594 94.285156 234.609375 94.523438 234.5 94.890625 C 234.390625 95.265625 234.207031 95.5625 233.949219 95.800781 C 233.6875 96.039062 233.804688 96.429688 233.542969 96.628906 C 233.261719 96.84375 233.316406 97.214844 233.121094 97.449219 C 232.914062 97.699219 232.820312 97.992188 232.679688 98.265625 C 232.539062 98.539062 232.601562 98.914062 232.289062 99.101562 C 232.019531 99.265625 232.09375 99.585938 231.96875 99.820312 C 231.824219 100.085938 231.6875 100.367188 231.605469 100.65625 C 231.460938 101.179688 231.25 101.652344 230.894531 102.074219 C 230.703125 102.304688 230.585938 102.609375 230.476562 102.894531 C 230.351562 103.214844 230.578125 103.621094 230.175781 103.894531 C 229.871094 104.101562 229.976562 104.582031 229.660156 104.816406 C 229.496094 104.941406 229.546875 105.148438 229.496094 105.308594 C 229.28125 105.945312 229.296875 106.039062 229.878906 106.265625 C 230.679688 106.574219 230.890625 106.53125 231.613281 106.109375 C 231.832031 105.980469 231.742188 105.773438 231.824219 105.6875 C 232.539062 104.957031 232.753906 103.984375 233.132812 103.089844 C 233.253906 102.8125 233.347656 102.523438 233.453125 102.238281 C 233.480469 102.15625 233.480469 102.058594 233.527344 101.992188 C 233.699219 101.769531 233.894531 101.5625 234.054688 101.335938 C 234.125 101.234375 234.179688 101.085938 234.167969 100.96875 C 234.128906 100.652344 234.132812 100.40625 234.550781 100.421875 C 234.578125 100.421875 234.632812 100.355469 234.636719 100.316406 C 234.699219 99.921875 234.828125 99.519531 235.050781 99.230469 C 235.3125 98.898438 235.320312 98.472656 235.589844 98.160156 C 235.664062 98.070312 235.625 97.890625 235.695312 97.789062 C 235.882812 97.523438 236.242188 97.296875 236.277344 97.019531 C 236.328125 96.652344 236.601562 96.480469 236.714844 96.199219 C 236.835938 95.90625 237.019531 95.640625 237.121094 95.371094 C 237.375 94.703125 237.875 94.238281 238.257812 93.695312 Z M 238.261719 93.695312 " fill-opacity="1" fill-rule="nonzero"/></g><path fill="#8c52ff" d="M 227.332031 31.386719 C 227.382812 31.882812 227.425781 32.351562 227.472656 32.816406 C 227.855469 33.21875 228.472656 33.246094 228.84375 33.671875 C 229.117188 33.574219 229.269531 33.777344 229.445312 33.921875 C 229.664062 34.097656 229.914062 34.25 230.089844 34.460938 C 230.289062 34.703125 230.636719 34.542969 230.8125 34.785156 C 231.015625 35.066406 231.363281 35.058594 231.628906 35.210938 C 231.871094 35.347656 232.066406 35.5625 232.289062 35.734375 C 232.355469 35.789062 232.457031 35.863281 232.519531 35.847656 C 233.082031 35.683594 233.34375 36.152344 233.71875 36.390625 C 234.125 36.652344 234.628906 36.691406 235.046875 36.949219 C 235.101562 36.984375 235.304688 36.707031 235.433594 36.714844 C 236.015625 36.746094 236.195312 36.261719 236.492188 35.933594 C 236.503906 35.917969 236.414062 35.816406 236.378906 35.75 C 236.320312 35.632812 236.214844 35.511719 236.222656 35.398438 C 236.25 35.046875 236.007812 34.882812 235.777344 34.753906 C 235.566406 34.636719 235.1875 34.761719 235.246094 34.3125 C 235.25 34.285156 235.105469 34.222656 235.023438 34.195312 C 234.734375 34.101562 234.378906 34.089844 234.171875 33.90625 C 233.851562 33.625 233.433594 33.566406 233.117188 33.320312 C 232.757812 33.046875 232.417969 32.773438 231.96875 32.625 C 231.59375 32.503906 231.433594 31.980469 230.921875 32.03125 C 230.824219 32.039062 230.699219 31.871094 230.601562 31.773438 C 230.074219 31.257812 229.433594 30.96875 228.742188 30.738281 C 228.53125 30.667969 228.492188 30.683594 228.332031 30.804688 C 228.023438 31.039062 227.660156 31.199219 227.332031 31.382812 Z M 227.332031 31.386719 " fill-opacity="1" fill-rule="nonzero"/><path fill="#8c52ff" d="M 225.546875 52.097656 C 225.136719 52.683594 224.96875 53.203125 224.988281 53.605469 C 225.007812 54.039062 225.214844 54.3125 225.632812 54.339844 C 225.847656 54.351562 225.925781 54.570312 226.09375 54.558594 C 226.191406 54.554688 226.277344 54.402344 226.367188 54.3125 C 226.667969 54.683594 227.054688 54.4375 227.40625 54.46875 C 227.621094 54.488281 227.84375 54.859375 228.023438 54.421875 C 228.390625 54.378906 228.761719 54.335938 229.128906 54.292969 C 229.457031 54.601562 229.734375 54.628906 230.03125 54.21875 C 230.101562 54.121094 230.414062 54.109375 230.5625 54.175781 C 230.761719 54.261719 230.972656 54.542969 231.15625 54.339844 C 231.441406 54.023438 231.957031 53.988281 232.070312 53.425781 C 232.183594 52.835938 232.265625 52.851562 232.175781 52.125 C 231.957031 51.976562 231.621094 52.078125 231.460938 51.800781 C 231.183594 51.828125 230.902344 51.84375 230.625 51.886719 C 230.421875 51.921875 230.277344 51.871094 230.121094 51.738281 C 229.921875 51.566406 229.636719 51.648438 229.476562 51.746094 C 229.289062 51.863281 229.199219 52.09375 228.964844 51.824219 C 228.925781 51.773438 228.796875 51.78125 228.710938 51.789062 C 227.644531 51.890625 226.578125 51.996094 225.546875 52.101562 Z M 225.546875 52.097656 " fill-opacity="1" fill-rule="nonzero"/><path fill="#8c52ff" d="M 234.46875 86.71875 C 234.464844 86.445312 234.371094 86.191406 234.582031 85.921875 C 234.722656 85.746094 234.710938 85.445312 234.855469 85.230469 C 234.542969 85.082031 234.597656 84.78125 234.527344 84.519531 C 234.457031 84.257812 234.070312 84.082031 233.753906 84.101562 C 233.570312 84.117188 233.386719 84.136719 233.230469 84.152344 C 232.96875 84.46875 232.730469 84.757812 232.492188 85.050781 C 232.257812 85.339844 232.019531 85.628906 231.78125 85.917969 C 231.542969 86.207031 231.324219 86.515625 231.0625 86.78125 C 230.808594 87.039062 230.699219 87.433594 230.304688 87.554688 C 229.910156 87.671875 229.820312 88.097656 229.542969 88.328125 C 229.605469 88.640625 229.46875 89.03125 229.738281 89.242188 C 229.945312 89.40625 229.859375 89.738281 230.082031 89.789062 C 230.304688 89.84375 230.488281 89.933594 230.691406 90.03125 C 231.136719 90.25 231.378906 89.664062 231.792969 89.664062 C 231.820312 89.664062 231.851562 89.59375 231.878906 89.558594 C 232.289062 89.074219 232.695312 88.609375 233.210938 88.207031 C 233.714844 87.8125 234.058594 87.21875 234.46875 86.71875 Z M 234.46875 86.71875 " fill-opacity="1" fill-rule="nonzero"/><path fill="#8c52ff" d="M 226.007812 72.566406 C 226.214844 72.753906 226.480469 72.609375 226.660156 72.820312 C 226.832031 73.027344 227.09375 72.839844 227.316406 72.851562 C 227.488281 72.488281 227.832031 72.523438 228.148438 72.488281 C 228.238281 72.480469 228.390625 72.484375 228.410156 72.441406 C 228.574219 72 229.089844 72.25 229.335938 71.964844 C 229.417969 71.875 229.550781 71.820312 229.675781 71.777344 C 229.925781 71.695312 230.335938 71.855469 230.402344 71.550781 C 230.457031 71.316406 230.539062 71.136719 230.65625 70.949219 C 230.460938 70.691406 230.992188 70.535156 230.746094 70.265625 C 230.492188 69.984375 230.433594 69.5 229.925781 69.484375 C 229.867188 69.484375 229.359375 69.515625 229.179688 69.558594 C 229.136719 69.570312 229.089844 69.574219 229.042969 69.574219 C 228.664062 69.5625 228.375 69.730469 228.058594 69.929688 C 227.777344 70.109375 227.34375 69.90625 227.066406 70.289062 C 226.972656 70.417969 226.632812 70.375 226.402344 70.398438 C 226.179688 70.417969 226.160156 70.546875 226.09375 70.742188 C 225.972656 71.085938 225.835938 71.394531 225.921875 71.773438 C 225.984375 72.042969 225.984375 72.320312 226.007812 72.566406 Z M 226.007812 72.566406 " fill-opacity="1" fill-rule="nonzero"/></svg>